<?xml version="1.0" encoding="UTF-8"?>
<svg width="700pt" height="700pt" version="1.1" viewBox="0 0 700 700" xmlns="http://www.w3.org/2000/svg">
 <g fill-rule="evenodd">
  <path d="m394.32 236.48 2.1445 261.18h26.43l2.1445-261.18zm67.801 0-6.3516 261.17 26.422-0.14062 10.656-261.03h-30.73zm78.902 0-20.418 292.11h-225.16l-20.41-292.11h-9.3203l-5.6172-41h294.13l-4.3398 41h-8.8711zm-225.25 0 17.508 261.21 25.98 0.046875-12.773-261.26z"/>
  <path d="m187.79 194.09c-22.402-22.395-26.84-19.223 7.3086-66.281 31.238-43.051 28.668-49.117 61.59-31.43 57.332-77.195 46.438-75.633 85.805-46.645l-169.5 240.38c-41.629-30.285-34.645-23.785 14.797-96.023zm12.031-17.066 44.836-63.582c-18.559-9.8672-15.285-7.9375-37.047 22.832-21.02 30.711-22.25 27.051-7.793 40.75z"/>
  <path d="m400.97 85.449c15.895 0 28.785 13.281 28.785 29.652 0 16.375-12.891 29.652-28.785 29.652-15.887 0-28.777-13.273-28.777-29.652 0-16.371 12.891-29.652 28.777-29.652z"/>
  <path d="m480.25 51.055c14.848 0 26.895 12.41 26.895 27.707s-12.043 27.707-26.895 27.707c-14.848 0-26.895-12.41-26.895-27.707s12.043-27.707 26.895-27.707z"/>
  <path d="m457.43 128.39c10.254 0 18.574 8.5664 18.574 19.137s-8.3203 19.137-18.574 19.137c-10.254 0-18.574-8.5664-18.574-19.137s8.3203-19.137 18.574-19.137z"/>
 </g>
</svg>
